<?xml version="1.0" encoding="iso-8859-1"?>
<!-- Generator: Adobe Illustrator 19.0.0, SVG Export Plug-In . SVG Version: 6.00 Build 0)  -->
<svg version="1.1" id="Layer_1" xmlns="http://www.w3.org/2000/svg" xmlns:xlink="http://www.w3.org/1999/xlink" x="0px" y="0px"
	 viewBox="0 0 512 512" style="enable-background:new 0 0 512 512;" xml:space="preserve">
<g>
	<g>
		<path d="M490.623,356.823L276.962,11.677C272.467,4.418,264.538,0,256,0c-8.538,0-16.468,4.418-20.962,11.676L21.377,356.821
			c-5.407,8.735-4.83,19.91,1.448,28.044c6.28,8.132,16.943,11.516,26.764,8.497l131.947-40.601l51.259,142.91
			C236.309,505.467,245.595,512,256,512c10.405,0,19.691-6.533,23.205-16.329l51.257-142.91l131.947,40.601
			c2.391,0.736,4.83,1.091,7.248,1.091c7.504,0,14.766-3.437,19.517-9.589C495.454,376.733,496.03,365.558,490.623,356.823z
			 M97.881,326.915l133.466-215.599v174.532L97.881,326.915z M256,414.326l-27.288-76.078L256,329.85l27.288,8.397L256,414.326z
			 M280.653,285.848V111.316l133.466,215.599L280.653,285.848z"/>
	</g>
</g>
<g>
</g>
<g>
</g>
<g>
</g>
<g>
</g>
<g>
</g>
<g>
</g>
<g>
</g>
<g>
</g>
<g>
</g>
<g>
</g>
<g>
</g>
<g>
</g>
<g>
</g>
<g>
</g>
<g>
</g>
</svg>
