<svg id="Digital_content" height="512" viewBox="0 0 64 64" width="512" xmlns="http://www.w3.org/2000/svg" data-name="Digital content"><path d="m23 27a4 4 0 1 0 -4-4 4 4 0 0 0 4 4zm0-6a2 2 0 1 1 -2 2 2 2 0 0 1 2-2z"/><path d="m45 42a8 8 0 1 0 8 8 8.009 8.009 0 0 0 -8-8zm0 14a6 6 0 1 1 6-6 6.006 6.006 0 0 1 -6 6z"/><path d="m6 6h2v2h-2z"/><path d="m10 6h2v2h-2z"/><path d="m14 6h2v2h-2z"/><path d="m60 38h-1v-2a1 1 0 0 0 -1-1h-2v-32a1 1 0 0 0 -1-1h-52a1 1 0 0 0 -1 1v46a1 1 0 0 0 1 1h24v10a2.006 2.006 0 0 0 2 2h31a2.006 2.006 0 0 0 2-2v-20a2.006 2.006 0 0 0 -2-2zm-3-1v1h-3v-1zm-53-33h50v6h-50zm23 44h-23v-36h50v23h-1a1 1 0 0 0 -1 1v2h-1v-23a1 1 0 0 0 -1-1h-42a1 1 0 0 0 -1 1v30a1 1 0 0 0 1 1h19zm22-32v17.3l-10.24-11.95a.962.962 0 0 0 -.79-.35.986.986 0 0 0 -.76.39l-9.45 12.28-7.23-4.52a1 1 0 0 0 -1.13.05l-10.4 7.8v-21zm-22 24v4h-18v-4.5l11.05-8.29 7.42 4.64a1 1 0 0 0 1.32-.24l9.25-12.02 10.96 12.78v1.63h-20a2.006 2.006 0 0 0 -2 2zm2 20v-20h9.38a11.984 11.984 0 0 0 0 20zm6-10a10 10 0 1 1 10 10 10.016 10.016 0 0 1 -10-10zm25 10h-8.38a11.984 11.984 0 0 0 0-20h8.38z"/></svg>